<svg id="Layer_1" data-name="Layer 1" xmlns="http://www.w3.org/2000/svg" xmlns:xlink="http://www.w3.org/1999/xlink" viewBox="0 0 840.69 791.99"><defs><style>.cls-1{fill:none;}.cls-2{clip-path:url(#clip-path);}.cls-3{fill:url(#radial-gradient);}.cls-4{fill:url(#linear-gradient);}.cls-5{fill:#ffe9de;opacity:0.4;}.cls-6{fill:#844b32;}.cls-7{fill:#354546;}.cls-8{fill:#23281e;}.cls-9{fill:#c46f45;}.cls-10{fill:#76845b;}.cls-11{fill:#94a56d;}.cls-12{fill:#585e4c;}.cls-13{fill:#a57653;}.cls-14{fill:#c1966f;}.cls-15{fill:#5e4838;}.cls-16{fill:url(#linear-gradient-2);}.cls-17{fill:url(#linear-gradient-3);}.cls-18{clip-path:url(#clip-path-2);}.cls-19{fill:url(#linear-gradient-4);}</style><clipPath id="clip-path"><circle class="cls-1" cx="419.54" cy="386.45" r="317.91"/></clipPath><radialGradient id="radial-gradient" cx="818.47" cy="386.85" r="761.57" gradientUnits="userSpaceOnUse"><stop offset="0.02" stop-color="#ffe3ca"/><stop offset="0.22" stop-color="#ffc3a1"/><stop offset="1" stop-color="#5a6d70"/></radialGradient><linearGradient id="linear-gradient" x1="408.46" y1="541.5" x2="408.46" y2="500.7" gradientUnits="userSpaceOnUse"><stop offset="0.02" stop-color="#182828"/><stop offset="1" stop-color="#505d5e"/></linearGradient><linearGradient id="linear-gradient-2" x1="418.73" y1="594.2" x2="418.73" y2="513.18" xlink:href="#linear-gradient"/><linearGradient id="linear-gradient-3" x1="458.24" y1="688.73" x2="458.24" y2="575.94" xlink:href="#linear-gradient"/><clipPath id="clip-path-2"><circle class="cls-1" cx="-565.05" cy="58.25" r="317.91"/></clipPath><linearGradient id="linear-gradient-4" x1="-526.35" y1="360.53" x2="-526.35" y2="247.74" xlink:href="#linear-gradient"/></defs><g class="cls-2"><path class="cls-3" d="M421.1,59.94C239,59.94,91.37,207.57,91.37,389.67S239,719.39,421.1,719.39,750.82,571.77,750.82,389.67,603.2,59.94,421.1,59.94ZM205.35,538h0Z"/><polygon class="cls-4" points="109.13 506.04 735.02 506.04 735.02 706.43 81.91 706.43 109.13 506.04"/><path class="cls-5" d="M468.54,287.38H396.7a13.84,13.84,0,0,0,8.91-12.93h0a13.85,13.85,0,0,0-13.86-13.86H244.84A13.85,13.85,0,0,0,231,274.45h0a13.84,13.84,0,0,0,8.91,12.93H209.94a43.14,43.14,0,0,0-43.14,43.15h0a43.14,43.14,0,0,0,43.14,43.15h258.6a43.14,43.14,0,0,0,43.14-43.15h0A43.14,43.14,0,0,0,468.54,287.38Z"/><polygon class="cls-6" points="210.15 524.58 168.49 460.02 277.81 355.91 339.24 169.54 405.87 220.55 436.07 300.72 476.67 310.1 548.51 524.58 210.15 524.58 210.15 524.58"/><polygon class="cls-7" points="339.24 169.54 277.81 355.91 168.49 460.02 210.15 524.58 425.71 524.64 352.27 334.88 382.66 270.3 339.24 169.54"/><polyline class="cls-8" points="246.9 461.24 374.05 390.61 436.25 543.86 222.16 543.86 168.49 460.02 277.81 355.91 339.24 169.54 328.21 306.83 246.9 461.24"/><polyline class="cls-9" points="382.66 270.3 528.99 524.72 548.51 524.58 476.67 310.1 436.07 300.72 405.87 220.55 382.66 270.3"/><rect class="cls-5" x="451.83" y="210.15" width="120.48" height="34.22" rx="17.11"/><polygon class="cls-6" points="261.22 502.79 291.64 488.51 326.69 473.08 350.88 431.9 404.42 376.81 512.81 524.3 261.22 502.79"/><polyline class="cls-9" points="404.42 376.81 475.22 503.2 535.18 523.53 404.42 376.81"/><polyline class="cls-7" points="404.42 376.81 399.62 445.06 293.67 534.53 219.9 531.09 404.42 376.81"/><polygon class="cls-8" points="281.63 543.86 399.62 445.06 447.34 483.75 411.67 544.65 281.63 543.86"/><path class="cls-6" d="M531.16,505.89s42.36-39.39,51.12-49,14.63-17.41,15.45-30.09-.66-30.15-.66-30.15l8.2-.87A267.8,267.8,0,0,1,607,427.54c0,18.87-10.48,31.61-18.13,40.49s-35.63,37.5-35.63,37.5"/><path class="cls-9" d="M602.81,398.52s4.54,35-4.34,49.5-45,54.94-45,54.94l8,.23s38-40.87,43.36-57.9,1.65-47.9,1.65-47.9l-4.33-.46Z"/><path class="cls-10" d="M660.71,359.89l-59.65,34.19a1.71,1.71,0,0,1-2.56-1.41c-.55-18.52,13.63-27.58,29.13-32a1.68,1.68,0,0,1,1.64.41l2.51,2.38a1.71,1.71,0,0,0,2.88-1.33l-.08-1.63a1.71,1.71,0,0,1,1.39-1.77,135.36,135.36,0,0,1,23.9-2.07A1.71,1.71,0,0,1,660.71,359.89Z"/><path class="cls-10" d="M597.11,395.54,554.8,361.89a1.71,1.71,0,0,1,1.26-3,106.11,106.11,0,0,1,19.44,4.07,1.72,1.72,0,0,1,1.16,1.9h0a1.7,1.7,0,0,0,2.73,1.61l1-.78a1.69,1.69,0,0,1,1.73-.22c11.67,5.15,21.26,14,17.71,29.13A1.72,1.72,0,0,1,597.11,395.54Z"/><path class="cls-11" d="M681.43,397.22H601.52a1.71,1.71,0,0,1-1.57-2.4c5.25-11.47,15.39-15.77,27-16.21a1.7,1.7,0,0,1,1.66,1.15l1,2.95a1.72,1.72,0,0,0,3.18.15l1.31-2.91a1.72,1.72,0,0,1,1.74-1,103.26,103.26,0,0,1,18.8,4,1.7,1.7,0,0,1,1.19,1.86l-.19,1.46a1.71,1.71,0,0,0,2.78,1.54l2.42-2a1.71,1.71,0,0,1,1.67-.28A191.64,191.64,0,0,1,682.19,394,1.71,1.71,0,0,1,681.43,397.22Z"/><path class="cls-12" d="M600.39,396.93H519.57a1.67,1.67,0,0,1-.94-3.12,177.89,177.89,0,0,1,16.24-8.21,1.89,1.89,0,0,1,1.88.21l2.25,1.7a1.78,1.78,0,0,0,2.88-1.62l-.3-1.6a1.66,1.66,0,0,1,1.09-1.86A108.15,108.15,0,0,1,557.53,378a1.85,1.85,0,0,1,1.94.79l1.85,2.91a1.82,1.82,0,0,0,3.28-.5l.8-3.37a1.76,1.76,0,0,1,1.57-1.31c14.48-1.28,28.07,2.65,35.07,18.11A1.7,1.7,0,0,1,600.39,396.93Z"/><path class="cls-13" d="M265.13,544.57H648.59S603.1,493,541.82,486.41,324.55,445.8,265.13,544.57Z"/><path class="cls-14" d="M617.57,517.52c-40.25,1.47-88.45-5.61-127.43-12-40.31-6.57-64.49-14-93.42-29.23,56-4.16,95.36-.28,127,4.1C580.53,488.3,617.57,517.52,617.57,517.52Z"/><path class="cls-15" d="M336,488.44c37.34,32.77,250.5,56.13,250.5,56.13H318.87l-50.09-7.13c13.74-19.78,31.7-33.64,52-43.16"/><path class="cls-16" d="M774.21,522.38c-26,0-26,10.71-51.91,10.71s-26-10.71-51.91-10.71-26,10.71-51.91,10.71-26-10.71-51.91-10.71-26,10.71-51.9,10.71-25.95-10.71-51.9-10.71-26,10.71-51.91,10.71-25.95-10.71-51.9-10.71-26,10.71-51.91,10.71-25.95-10.71-51.9-10.71-26,10.71-51.91,10.71-26-10.71-51.9-10.71-25.95,10.71-51.9,10.71-25.95-10.71-51.9-10.71v169H789.92Z"/><path class="cls-17" d="M1014.89,571.47c-40.64,0-40.64,16-81.29,16s-40.64-16-81.29-16-40.64,16-81.28,16-40.64-16-81.28-16-40.64,16-81.28,16-40.63-16-81.27-16-40.64,16-81.28,16-40.64-16-81.28-16-40.64,16-81.28,16-40.64-16-81.28-16-40.64,16-81.28,16-40.63-16-81.27-16-40.63,16-81.27,16-40.64-16-81.28-16V824H1039.5Z"/></g><g class="cls-18"><path class="cls-19" d="M30.3,243.28c-40.64,0-40.64,16-81.29,16s-40.64-16-81.29-16-40.64,16-81.28,16-40.64-16-81.28-16-40.64,16-81.28,16-40.63-16-81.27-16-40.64,16-81.28,16-40.64-16-81.28-16-40.64,16-81.28,16-40.64-16-81.28-16-40.64,16-81.28,16-40.63-16-81.27-16-40.64,16-81.27,16-40.64-16-81.28-16V495.79H54.91Z"/></g></svg>