<svg id="Layer_2" data-name="Layer 2" xmlns="http://www.w3.org/2000/svg" xmlns:xlink="http://www.w3.org/1999/xlink" viewBox="0 0 601.73 602.33"><defs><style>.cls-1{fill:none;}.cls-2{clip-path:url(#clip-path);}.cls-3{fill:url(#radial-gradient);}.cls-4{fill:url(#linear-gradient);}.cls-5{fill:#fff;opacity:0.6;}.cls-6{fill:#844b32;}.cls-7{fill:#262f34;}.cls-8{fill:#15140d;}.cls-9{fill:#df7f4a;}.cls-10{fill:#9d9350;}.cls-11{fill:#d5c26b;}.cls-12{fill:#5c583e;}.cls-13{fill:#ba8155;}.cls-14{fill:#e5ab7e;}.cls-15{fill:#543b2a;}.cls-16{fill:url(#linear-gradient-2);}.cls-17{fill:url(#linear-gradient-3);}</style><clipPath id="clip-path"><rect class="cls-1" x="0.42" y="0.4" width="603.3" height="603.3"/></clipPath><radialGradient id="radial-gradient" cx="700.95" cy="291.11" r="782.05" gradientUnits="userSpaceOnUse"><stop offset="0.16" stop-color="#ffebde"/><stop offset="0.41" stop-color="#f4cfb9"/><stop offset="1" stop-color="#636d70"/></radialGradient><linearGradient id="linear-gradient" x1="292.08" y1="447.2" x2="292.08" y2="406.4" gradientUnits="userSpaceOnUse"><stop offset="0.02" stop-color="#0b1213"/><stop offset="1" stop-color="#454e52"/></linearGradient><linearGradient id="linear-gradient-2" x1="302.35" y1="499.9" x2="302.35" y2="418.88" xlink:href="#linear-gradient"/><linearGradient id="linear-gradient-3" x1="341.86" y1="594.43" x2="341.86" y2="481.63" xlink:href="#linear-gradient"/></defs><g class="cls-2"><rect class="cls-3" x="-45.7" y="-44.59" width="677.18" height="677.18"/><polygon class="cls-4" points="-7.25 411.74 618.64 411.74 618.64 612.13 -34.47 612.13 -7.25 411.74"/><path class="cls-5" d="M352.16,193.08H280.32a13.84,13.84,0,0,0,8.91-12.93h0a13.85,13.85,0,0,0-13.86-13.86H128.46a13.85,13.85,0,0,0-13.86,13.86h0a13.84,13.84,0,0,0,8.91,12.93H93.56a43.14,43.14,0,0,0-43.14,43.15h0a43.14,43.14,0,0,0,43.14,43.15h258.6a43.14,43.14,0,0,0,43.14-43.15h0A43.14,43.14,0,0,0,352.16,193.08Z"/><polygon class="cls-6" points="93.77 430.27 52.11 365.72 161.43 261.61 222.86 75.24 289.49 126.25 319.69 206.42 360.29 215.79 432.13 430.27 93.77 430.27 93.77 430.27"/><polygon class="cls-7" points="222.86 75.24 161.43 261.61 52.11 365.72 93.77 430.27 309.33 430.34 235.89 240.58 266.28 176 222.86 75.24"/><polyline class="cls-8" points="130.52 366.94 257.67 296.31 319.87 449.56 105.78 449.56 52.11 365.72 161.43 261.61 222.86 75.24 211.83 212.53 130.52 366.94"/><polyline class="cls-9" points="266.28 176 412.61 430.42 432.13 430.27 360.29 215.79 319.69 206.42 289.49 126.25 266.28 176"/><rect class="cls-5" x="335.45" y="115.85" width="120.48" height="34.22" rx="17.11"/><polygon class="cls-6" points="144.84 408.49 175.26 394.21 210.31 378.78 234.5 337.6 288.04 282.51 396.43 430 144.84 408.49"/><polyline class="cls-9" points="288.04 282.51 358.84 408.9 418.8 429.23 288.04 282.51"/><polyline class="cls-7" points="288.04 282.51 283.24 350.76 177.29 440.23 103.52 436.79 288.04 282.51"/><polygon class="cls-8" points="165.25 449.56 283.24 350.76 330.96 389.45 295.29 450.35 165.25 449.56"/><path class="cls-6" d="M414.78,411.59s42.36-39.39,51.12-49,14.63-17.41,15.45-30.1-.66-30.14-.66-30.14l8.2-.87a267.8,267.8,0,0,1,1.69,31.77c0,18.86-10.48,31.61-18.13,40.49s-35.63,37.5-35.63,37.5"/><path class="cls-9" d="M486.43,304.22s4.54,35-4.34,49.5-45,54.94-45,54.94l8.05.22s38-40.86,43.36-57.89,1.64-48.53,1.64-48.53l-4-.17Z"/><path class="cls-10" d="M544.33,265.59l-59.65,34.19a1.71,1.71,0,0,1-2.56-1.41c-.55-18.52,13.63-27.59,29.13-32a1.68,1.68,0,0,1,1.64.41l2.51,2.38a1.71,1.71,0,0,0,2.88-1.33l-.08-1.63a1.7,1.7,0,0,1,1.39-1.77,135.36,135.36,0,0,1,23.9-2.07A1.71,1.71,0,0,1,544.33,265.59Z"/><path class="cls-10" d="M480.73,301.24l-42.31-33.65a1.71,1.71,0,0,1,1.26-3,105.28,105.28,0,0,1,19.44,4.07,1.72,1.72,0,0,1,1.16,1.9h0a1.71,1.71,0,0,0,2.74,1.61l1-.78a1.67,1.67,0,0,1,1.73-.22c11.67,5.15,21.26,14,17.71,29.13A1.72,1.72,0,0,1,480.73,301.24Z"/><path class="cls-11" d="M565.05,302.92H485.14a1.71,1.71,0,0,1-1.57-2.4c5.25-11.47,15.39-15.78,27-16.21a1.7,1.7,0,0,1,1.66,1.15l1,3a1.71,1.71,0,0,0,3.18.14l1.31-2.9a1.75,1.75,0,0,1,1.74-1,104.14,104.14,0,0,1,18.8,4,1.7,1.7,0,0,1,1.19,1.86L539.3,292a1.71,1.71,0,0,0,2.78,1.54l2.42-2a1.74,1.74,0,0,1,1.67-.29,193.63,193.63,0,0,1,19.64,8.42A1.71,1.71,0,0,1,565.05,302.92Z"/><path class="cls-12" d="M403.82,303a1.67,1.67,0,0,1-.94-3.12,175.34,175.34,0,0,1,16.24-8.21,1.89,1.89,0,0,1,1.88.21l2.25,1.69a1.78,1.78,0,0,0,2.88-1.61l-.3-1.61a1.67,1.67,0,0,1,1.09-1.86A109.52,109.52,0,0,1,441.78,284a1.85,1.85,0,0,1,1.94.79l1.85,2.91a1.82,1.82,0,0,0,3.28-.5l.8-3.37a1.74,1.74,0,0,1,1.57-1.31c14.47-1.28,32.89,7.49,35,20.4"/><path class="cls-13" d="M148.75,450.27H532.21s-45.49-51.58-106.77-58.16S208.17,351.5,148.75,450.27Z"/><path class="cls-14" d="M503,424.3c-33.7.33-72.49,1.4-110-10.83-38.89-12.68-45.09-17.72-72-32.15,55.31,2.58,65.2,2.35,96.7,7.65C452.26,394.8,473.69,403.88,503,424.3Z"/><path class="cls-15" d="M531.63,450.22H202.87l-50.09-7.13c13.74-19.78,45.6-47,82.72-54.11,29,25.94,103.52,45.54,124.66,48.23,34.3,4.37,71.9,13.73,96.87,9.51,21.42-3.62-40.71,11.9-4,21.73C463,477,531.63,450.22,531.63,450.22Z"/><path class="cls-16" d="M657.83,428.08c-26,0-26,10.71-51.91,10.71S580,428.08,554,428.08s-26,10.71-51.91,10.71-26-10.71-51.91-10.71-25.95,10.71-51.9,10.71-26-10.71-51.9-10.71-26,10.71-51.91,10.71-26-10.71-51.9-10.71-26,10.71-51.91,10.71-25.95-10.71-51.9-10.71-26,10.71-51.91,10.71S60.91,428.08,35,428.08,9,438.79-16.94,438.79s-25.95-10.71-51.9-10.71v169H673.54Z"/><path class="cls-17" d="M898.51,477.17c-40.64,0-40.64,16-81.29,16s-40.64-16-81.29-16-40.64,16-81.28,16-40.64-16-81.28-16-40.64,16-81.28,16-40.63-16-81.27-16-40.64,16-81.28,16-40.64-16-81.28-16-40.64,16-81.28,16-40.64-16-81.28-16-40.64,16-81.28,16-40.63-16-81.27-16-40.63,16-81.27,16-40.64-16-81.28-16V729.69H923.12Z"/></g></svg>