<svg id="Layer_1" data-name="Layer 1" xmlns="http://www.w3.org/2000/svg" xmlns:xlink="http://www.w3.org/1999/xlink" viewBox="0 0 840.69 791.99"><defs><style>.cls-1{fill:none;}.cls-2{clip-path:url(#clip-path);}.cls-3{fill:url(#radial-gradient);}.cls-4{fill:url(#linear-gradient);}.cls-5{fill:#ffe9de;opacity:0.4;}.cls-6{fill:#844b32;}.cls-7{fill:#354546;}.cls-8{fill:#23281e;}.cls-9{fill:#c46f45;}.cls-10{fill:#76845b;}.cls-11{fill:#94a56d;}.cls-12{fill:#585e4c;}.cls-13{fill:#a57653;}.cls-14{fill:#c1966f;}.cls-15{fill:#5e4838;}.cls-16{fill:url(#linear-gradient-2);}.cls-17{fill:url(#linear-gradient-3);}</style><clipPath id="clip-path"><circle class="cls-1" cx="419.54" cy="386.45" r="317.91"/></clipPath><radialGradient id="radial-gradient" cx="818.47" cy="386.85" r="761.57" gradientUnits="userSpaceOnUse"><stop offset="0.02" stop-color="#ffe3ca"/><stop offset="0.22" stop-color="#ffc3a1"/><stop offset="1" stop-color="#5a6d70"/></radialGradient><linearGradient id="linear-gradient" x1="408.46" y1="541.5" x2="408.46" y2="500.7" gradientUnits="userSpaceOnUse"><stop offset="0.02" stop-color="#182828"/><stop offset="1" stop-color="#505d5e"/></linearGradient><linearGradient id="linear-gradient-2" x1="418.73" y1="594.2" x2="418.73" y2="513.18" xlink:href="#linear-gradient"/><linearGradient id="linear-gradient-3" x1="458.24" y1="688.73" x2="458.24" y2="575.94" xlink:href="#linear-gradient"/></defs><g class="cls-2"><path class="cls-3" d="M421.1,59.94C239,59.94,91.37,207.57,91.37,389.67S239,719.39,421.1,719.39,750.82,571.77,750.82,389.67,603.2,59.94,421.1,59.94ZM205.35,538h0Z"/><polygon class="cls-4" points="109.13 506.04 735.02 506.04 735.02 706.43 81.91 706.43 109.13 506.04"/><path class="cls-5" d="M468.54,287.38H396.7a13.84,13.84,0,0,0,8.91-12.93h0a13.85,13.85,0,0,0-13.86-13.86H244.84A13.85,13.85,0,0,0,231,274.45h0a13.84,13.84,0,0,0,8.91,12.93H209.94a43.14,43.14,0,0,0-43.14,43.15h0a43.14,43.14,0,0,0,43.14,43.15h258.6a43.14,43.14,0,0,0,43.14-43.15h0A43.14,43.14,0,0,0,468.54,287.38Z"/><polygon class="cls-6" points="210.15 524.58 168.49 460.02 277.81 355.91 339.24 169.54 405.87 220.55 436.07 300.72 476.67 310.1 548.51 524.58 210.15 524.58 210.15 524.58"/><polygon class="cls-7" points="339.24 169.54 277.81 355.91 168.49 460.02 210.15 524.58 425.71 524.64 352.27 334.88 382.66 270.3 339.24 169.54"/><polyline class="cls-8" points="246.9 461.24 370.96 382.99 436.25 543.86 222.16 543.86 168.49 460.02 277.81 355.91 339.24 169.54 321.84 288.52 338.6 308.33 246.07 435.52 246.9 461.24"/><polygon class="cls-9" points="405.87 220.55 382.66 270.3 427.52 322.03 419.12 348.81 528.99 524.72 548.51 524.58 476.67 310.1 436.07 300.72 405.87 220.55"/><rect class="cls-5" x="500.82" y="250.69" width="120.48" height="34.22" rx="17.11"/><polygon class="cls-6" points="261.22 502.79 275.64 476.92 326.69 473.08 350.88 431.9 404.42 376.81 512.81 524.3 261.22 502.79"/><polygon class="cls-9" points="404.42 376.81 432.74 443.74 467.74 475.14 460.67 523.74 535.18 523.53 404.42 376.81"/><polygon class="cls-7" points="404.42 376.81 399.62 445.06 309.85 520.87 261.22 502.79 275.64 476.92 326.69 473.08 350.88 431.9 404.42 376.81"/><polygon class="cls-8" points="281.63 543.86 399.62 445.06 447.34 483.75 411.67 544.65 281.63 543.86"/><path class="cls-6" d="M548,505.52s37.52-34.88,45.28-43.41,13-15.42,13.69-26.65-.59-26.7-.59-26.7l7.27-.77a238,238,0,0,1,1.49,28.13c0,16.71-9.28,28-16.05,35.86s-31.57,33.22-31.57,33.22"/><path class="cls-9" d="M611.42,410.43s4,31-3.84,43.83-39.86,48.66-39.86,48.66l7.13.2s33.65-36.19,38.4-51.27,1.46-42.43,1.46-42.43l-3.84-.4Z"/><path class="cls-10" d="M667.41,373.52,607.78,407.7c-1.92-18.42,11.74-27,26.46-31l5.6,5.32-.34-6.55A119.82,119.82,0,0,1,667.41,373.52Z"/><path class="cls-10" d="M608.17,409.21,565,374.84a95.31,95.31,0,0,1,23.5,4.46l-.78,5,4.62-3.57C603.57,385.51,613,394,608.17,409.21Z"/><path class="cls-11" d="M687.23,409.27H608c4.47-12.15,14.46-16.35,25.91-16.51l2.52,7.25,3.18-7a91.82,91.82,0,0,1,19,4l-.82,6.33,5.75-4.69A166.11,166.11,0,0,1,687.23,409.27Z"/><path class="cls-12" d="M608.22,409.27H532.43a140.15,140.15,0,0,1,19-10.57l5.77,4.6L556,396.7A89,89,0,0,1,570.81,392l4.08,6.82,1.74-7.8C589.88,389.48,602.42,393.19,608.22,409.27Z"/><rect class="cls-5" x="287.61" y="197.63" width="218.78" height="53.41" rx="26.71"/><path class="cls-13" d="M265.13,544.57H648.59S603.1,493,541.82,486.41,324.55,445.8,265.13,544.57Z"/><path class="cls-14" d="M632.35,529c-60.08-26.14-89.56-15-127.1-27.25-38.89-12.68-73.73-17-108.53-25.41,56-4.16,113.21,6.62,145,10C588.17,491.36,617,514.36,632.35,529Z"/><path class="cls-15" d="M647.63,544.57H318.87l-50.09-7.13c13.74-19.78,31.7-33.64,52-43.16,22,9.54,67.32,19.77,87.39,23.61,34.78,6.65,121.9,37,146.87,32.77,21.42-3.62-22.72,2.31,14,12.14C579,571.35,647.63,544.57,647.63,544.57Z"/><path class="cls-16" d="M774.21,522.38c-26,0-26,10.71-51.91,10.71s-26-10.71-51.91-10.71-26,10.71-51.91,10.71-26-10.71-51.91-10.71-26,10.71-51.9,10.71-25.95-10.71-51.9-10.71-26,10.71-51.91,10.71-25.95-10.71-51.9-10.71-26,10.71-51.91,10.71-25.95-10.71-51.9-10.71-26,10.71-51.91,10.71-26-10.71-51.9-10.71-25.95,10.71-51.9,10.71-25.95-10.71-51.9-10.71v169H789.92Z"/><path class="cls-17" d="M1014.89,571.47c-40.64,0-40.64,16-81.29,16s-40.64-16-81.29-16-40.64,16-81.28,16-40.64-16-81.28-16-40.64,16-81.28,16-40.63-16-81.27-16-40.64,16-81.28,16-40.64-16-81.28-16-40.64,16-81.28,16-40.64-16-81.28-16-40.64,16-81.28,16-40.63-16-81.27-16-40.63,16-81.27,16-40.64-16-81.28-16V824H1039.5Z"/></g></svg>